<?xml version="1.0" encoding="UTF-8"?>
<svg width="1280px" height="252px" viewBox="0 0 1280 252" version="1.1" xmlns="http://www.w3.org/2000/svg" xmlns:xlink="http://www.w3.org/1999/xlink">
    <!-- Generator: Sketch 57.1 (83088) - https://sketch.com -->
    <title>ELC Footer Background</title>
    <desc>Created with Sketch.</desc>
    <g id="ELC-Footer-Background" stroke="none" stroke-width="1" fill="none" fill-rule="evenodd">
        <g id="Group-11">
            <polygon id="Fill-1" fill="#3F4347" points="0 252.37 1280 252.37 1280 0 0 0"></polygon>
            <polygon id="Fill-2" fill="#4CC0AD" points="942.2817 146.5996 906.9377 153.3206 906.9377 239.9896 942.2817 232.2666"></polygon>
            <polygon id="Fill-3" fill="#4CC0AD" points="1015.7553 53.8237 980.4113 60.5447 980.4113 117.2137 1015.7563 109.4907"></polygon>
            <polygon id="Fill-4" fill="#1775B8" points="940.5248 129.3515 927.3308 131.8605 927.3308 164.2155 940.5248 161.3325"></polygon>
            <polygon id="Fill-5" fill="#90D4D3" points="1000.6002 80.7427 1000.6002 137.4117 1304.5652 79.6097 1300.4372 23.7257"></polygon>
            <polygon id="Fill-6" fill="#535659" points="936.5796 123.3901 936.5796 252.3701 1279.9996 252.3701 1279.9996 58.0801"></polygon>
            <polygon id="Fill-7" fill="#1775B8" points="1065.7799 252.37 1101.1299 252.37 1101.1299 236.54 1065.7799 229.82"></polygon>
            <polygon id="Fill-8" fill-opacity="0.05" fill="#DDE0E4" points="1084.3804 219.27 1084.3804 252.37 0.0004 252.37 0.0004 12.59 936.5794 191.1"></polygon>
            <polygon id="Fill-10" fill="#3F4347" points="0 252.37 109.37 252.37 0 231.53"></polygon>
        </g>
    </g>
</svg>